# xmcd
#
# Track frame offsets:
#	150
#	20725
#	51175
#	61525
#	77050
#	131125
#	151675
#	196000
#	247525
#	264175
#
# Disc length: 4086 seconds
#
# Revision: 0
# Processed by: cddbd v1.5.2PL0 Copyright (c) Steve Scherf et al.
# Submitted via: EZCDAudioConverter 1.3.4.1
#
DISCID=6d0ff40a
DTITLE=Various Artist - 101 Great Orchestral Classics, Vol. 8
DYEAR=1991
DGENRE=Orchestral
TTITLE0=Kenneth Schermerhorn - Karelia Suite, for orchestra, Op. 11- Alla marc
TTITLE0=ia
TTITLE1=András Ligeti - Piano Concerto No. 21 in C major (-Elvira Madigan-) K.
TTITLE1=467- Andante
TTITLE2=István Bogár - Hungarian Dances (21) for orchestra, WoO 1- No 5
TTITLE3=Bohdan Warchal - Brandenburg Concerto No. 3 in G major, BWV 1048- Alle
TTITLE3=gro
TTITLE4=Stephen Gunzenhauser - Symphony No. 9 in E minor (-From the New World-
TTITLE4=), B. 178 (Op. 95) (first published as No. 5)- Largo
TTITLE5=Ondrej Lenard - The Sleeping Beauty, ballet, Op. 66
TTITLE6=Kenneth Jean - Romance for violin and orchestra No. 2 in F major, Op. 50
TTITLE7=Kenneth Jean - The Sorcerer's Apprentice (L'apprenti sorcier), symphon
TTITLE7=ic scherzo for orchestra
TTITLE8=Richard Edlinger - Largo in F major, instrumental arrangement (-Ombra 
TTITLE8=mai fu- from the opera Serse)
TTITLE9=Ondrej Lenard - An der schönen, blauen Donau (On the Beautiful, Blue D
TTITLE9=anube), waltz for orchestra (with chorus ad lib), Op. 314 (RV 314)
EXTD=
EXTT0=
EXTT1=
EXTT2=
EXTT3=
EXTT4=
EXTT5=
EXTT6=
EXTT7=
EXTT8=
EXTT9=
PLAYORDER=
